<svg width="34" height="44" viewBox="0 0 34 44" fill="none" xmlns="http://www.w3.org/2000/svg">
<g clip-path="url(#clip0_2958_12160)">
<path d="M19 7H8C7.45 7 7 6.55 7 6C7 5.45 7.45 5 8 5H19C19.55 5 20 5.45 20 6C20 6.55 19.55 7 19 7Z" fill="#C41D39"/>
<path d="M21.5 11H5.5C5.22 11 5 10.78 5 10.5C5 10.22 5.22 10 5.5 10H21.5C21.78 10 22 10.22 22 10.5C22 10.78 21.78 11 21.5 11Z" fill="#C41D39"/>
<path d="M21.5 14H5.5C5.22 14 5 13.78 5 13.5C5 13.22 5.22 13 5.5 13H21.5C21.78 13 22 13.22 22 13.5C22 13.78 21.78 14 21.5 14Z" fill="#C41D39"/>
<path d="M21.5 17H5.5C5.22 17 5 16.78 5 16.5C5 16.22 5.22 16 5.5 16H21.5C21.78 16 22 16.22 22 16.5C22 16.78 21.78 17 21.5 17Z" fill="#C41D39"/>
<path d="M21.5 20H5.5C5.22 20 5 19.78 5 19.5C5 19.22 5.22 19 5.5 19H21.5C21.78 19 22 19.22 22 19.5C22 19.78 21.78 20 21.5 20Z" fill="#C41D39"/>
<path d="M21.5 23H12.5C12.22 23 12 22.78 12 22.5C12 22.22 12.22 22 12.5 22H21.5C21.78 22 22 22.22 22 22.5C22 22.78 21.78 23 21.5 23Z" fill="#C41D39"/>
<path d="M10 36H3C1.35 36 0 34.65 0 33V3C0 1.35 1.35 0 3 0H24C25.65 0 27 1.35 27 3V22C27 22.55 26.55 23 26 23C25.45 23 25 22.55 25 22V3C25 2.45 24.55 2 24 2H3C2.45 2 2 2.45 2 3V33C2 33.55 2.45 34 3 34H10C10.55 34 11 34.45 11 35C11 35.55 10.55 36 10 36Z" fill="#C41D39"/>
<path d="M8.99999 32.0002C7.91999 32.0002 6.89999 31.5702 6.13999 30.8002C5.94999 30.6002 5.94999 30.2902 6.13999 30.0902C6.33999 29.9002 6.65999 29.9002 6.84999 30.0902C7.41999 30.6702 8.17999 30.9902 8.98999 30.9902C10.64 30.9902 11.99 29.6402 11.99 27.9902C11.99 26.3402 10.64 24.9902 8.98999 24.9902C7.33999 24.9902 5.98999 26.3402 5.98999 27.9902C5.98999 28.2702 5.76999 28.4902 5.48999 28.4902C5.20999 28.4902 4.98999 28.2702 4.98999 27.9902C4.98999 25.7802 6.77999 23.9902 8.98999 23.9902C11.2 23.9902 12.99 25.7802 12.99 27.9902C12.99 30.2002 11.2 31.9902 8.98999 31.9902L8.99999 32.0002Z" fill="#C41D39"/>
<path d="M9 30C7.9 30 7 29.1 7 28C7 26.9 7.9 26 9 26C9.28 26 9.5 26.22 9.5 26.5C9.5 26.78 9.28 27 9 27C8.45 27 8 27.45 8 28C8 28.55 8.45 29 9 29C9.55 29 10 28.55 10 28C10 27.72 10.22 27.5 10.5 27.5C10.78 27.5 11 27.72 11 28C11 29.1 10.1 30 9 30Z" fill="#C41D39"/>
<path d="M32 44H16C14.9 44 14 43.1 14 42V30C14 28.9 14.9 28 16 28H32C33.1 28 34 28.9 34 30V42C34 43.1 33.1 44 32 44ZM16 30V42H32V30H16Z" fill="#C41D39"/>
<path d="M18 31C17.45 31 17 30.55 17 30V27C17 26.45 17.45 26 18 26C18.55 26 19 26.45 19 27V30C19 30.55 18.55 31 18 31Z" fill="#C41D39"/>
<path d="M30 31C29.45 31 29 30.55 29 30V27C29 26.45 29.45 26 30 26C30.55 26 31 26.45 31 27V30C31 30.55 30.55 31 30 31Z" fill="#C41D39"/>
<path d="M22 31C21.45 31 21 30.55 21 30V27C21 26.45 21.45 26 22 26C22.55 26 23 26.45 23 27V30C23 30.55 22.55 31 22 31Z" fill="#C41D39"/>
<path d="M26 31C25.45 31 25 30.55 25 30V27C25 26.45 25.45 26 26 26C26.55 26 27 26.45 27 27V30C27 30.55 26.55 31 26 31Z" fill="#C41D39"/>
<path d="M18.5 34H17.5C17.22 34 17 33.78 17 33.5C17 33.22 17.22 33 17.5 33H18.5C18.78 33 19 33.22 19 33.5C19 33.78 18.78 34 18.5 34Z" fill="#C41D39"/>
<path d="M30.5 34H29.5C29.22 34 29 33.78 29 33.5C29 33.22 29.22 33 29.5 33H30.5C30.78 33 31 33.22 31 33.5C31 33.78 30.78 34 30.5 34Z" fill="#C41D39"/>
<path d="M22.5 34H21.5C21.22 34 21 33.78 21 33.5C21 33.22 21.22 33 21.5 33H22.5C22.78 33 23 33.22 23 33.5C23 33.78 22.78 34 22.5 34Z" fill="#C41D39"/>
<path d="M26.5 34H25.5C25.22 34 25 33.78 25 33.5C25 33.22 25.22 33 25.5 33H26.5C26.78 33 27 33.22 27 33.5C27 33.78 26.78 34 26.5 34Z" fill="#C41D39"/>
<path d="M18.5 37H17.5C17.22 37 17 36.78 17 36.5C17 36.22 17.22 36 17.5 36H18.5C18.78 36 19 36.22 19 36.5C19 36.78 18.78 37 18.5 37Z" fill="#C41D39"/>
<path d="M30.5 37H29.5C29.22 37 29 36.78 29 36.5C29 36.22 29.22 36 29.5 36H30.5C30.78 36 31 36.22 31 36.5C31 36.78 30.78 37 30.5 37Z" fill="#C41D39"/>
<path d="M26.5 37H25.5C25.22 37 25 36.78 25 36.5C25 36.22 25.22 36 25.5 36H26.5C26.78 36 27 36.22 27 36.5C27 36.78 26.78 37 26.5 37Z" fill="#C41D39"/>
<path d="M18.5 40H17.5C17.22 40 17 39.78 17 39.5C17 39.22 17.22 39 17.5 39H18.5C18.78 39 19 39.22 19 39.5C19 39.78 18.78 40 18.5 40Z" fill="#C41D39"/>
<path d="M30.5 40H29.5C29.22 40 29 39.78 29 39.5C29 39.22 29.22 39 29.5 39H30.5C30.78 39 31 39.22 31 39.5C31 39.78 30.78 40 30.5 40Z" fill="#C41D39"/>
<path d="M22.5 40H21.5C21.22 40 21 39.78 21 39.5C21 39.22 21.22 39 21.5 39H22.5C22.78 39 23 39.22 23 39.5C23 39.78 22.78 40 22.5 40Z" fill="#C41D39"/>
<path d="M26.5 40H25.5C25.22 40 25 39.78 25 39.5C25 39.22 25.22 39 25.5 39H26.5C26.78 39 27 39.22 27 39.5C27 39.78 26.78 40 26.5 40Z" fill="#C41D39"/>
<path d="M23.5 38H20.5C20.22 38 20 37.78 20 37.5V35.5C20 35.22 20.22 35 20.5 35H23.5C23.78 35 24 35.22 24 35.5V37.5C24 37.78 23.78 38 23.5 38ZM21 37H23V36H21V37Z" fill="#C41D39"/>
</g>
<defs>
<clipPath id="clip0_2958_12160">
<rect width="34" height="44" fill="white"/>
</clipPath>
</defs>
</svg>
