<svg width="34" height="44" viewBox="0 0 34 44" fill="none" xmlns="http://www.w3.org/2000/svg">
<g clip-path="url(#clip0_2955_12143)">
<path d="M19 7H8C7.45 7 7 6.55 7 6C7 5.45 7.45 5 8 5H19C19.55 5 20 5.45 20 6C20 6.55 19.55 7 19 7Z" fill="#C41D39"/>
<path d="M21.5 11H5.5C5.22 11 5 10.78 5 10.5C5 10.22 5.22 10 5.5 10H21.5C21.78 10 22 10.22 22 10.5C22 10.78 21.78 11 21.5 11Z" fill="#C41D39"/>
<path d="M21.5 14H5.5C5.22 14 5 13.78 5 13.5C5 13.22 5.22 13 5.5 13H21.5C21.78 13 22 13.22 22 13.5C22 13.78 21.78 14 21.5 14Z" fill="#C41D39"/>
<path d="M21.5 17H5.5C5.22 17 5 16.78 5 16.5C5 16.22 5.22 16 5.5 16H21.5C21.78 16 22 16.22 22 16.5C22 16.78 21.78 17 21.5 17Z" fill="#C41D39"/>
<path d="M21.5 20H5.5C5.22 20 5 19.78 5 19.5C5 19.22 5.22 19 5.5 19H21.5C21.78 19 22 19.22 22 19.5C22 19.78 21.78 20 21.5 20Z" fill="#C41D39"/>
<path d="M21.5 23H12.5C12.22 23 12 22.78 12 22.5C12 22.22 12.22 22 12.5 22H21.5C21.78 22 22 22.22 22 22.5C22 22.78 21.78 23 21.5 23Z" fill="#C41D39"/>
<path d="M21.5 26H15.5C15.22 26 15 25.78 15 25.5C15 25.22 15.22 25 15.5 25H21.5C21.78 25 22 25.22 22 25.5C22 25.78 21.78 26 21.5 26Z" fill="#C41D39"/>
<path d="M17 36H3C1.35 36 0 34.65 0 33V3C0 1.35 1.35 0 3 0H24C25.65 0 27 1.35 27 3V22C27 22.55 26.55 23 26 23C25.45 23 25 22.55 25 22V3C25 2.45 24.55 2 24 2H3C2.45 2 2 2.45 2 3V33C2 33.55 2.45 34 3 34H17C17.55 34 18 34.45 18 35C18 35.55 17.55 36 17 36Z" fill="#C41D39"/>
<path d="M33 44C32.45 44 32 43.55 32 43V22C32 21.45 32.45 21 33 21C33.55 21 34 21.45 34 22V43C34 43.55 33.55 44 33 44Z" fill="#C41D39"/>
<path d="M29 44C28.45 44 28 43.55 28 43V26C28 25.45 28.45 25 29 25C29.55 25 30 25.45 30 26V43C30 43.55 29.55 44 29 44Z" fill="#C41D39"/>
<path d="M25 44C24.45 44 24 43.55 24 43V31C24 30.45 24.45 30 25 30C25.55 30 26 30.45 26 31V43C26 43.55 25.55 44 25 44Z" fill="#C41D39"/>
<path d="M21 44C20.45 44 20 43.55 20 43V34C20 33.45 20.45 33 21 33C21.55 33 22 33.45 22 34V43C22 43.55 21.55 44 21 44Z" fill="#C41D39"/>
<path d="M17 44C16.45 44 16 43.55 16 43V39C16 38.45 16.45 38 17 38C17.55 38 18 38.45 18 39V43C18 43.55 17.55 44 17 44Z" fill="#C41D39"/>
<path d="M13 44C12.45 44 12 43.55 12 43V41C12 40.45 12.45 40 13 40C13.55 40 14 40.45 14 41V43C14 43.55 13.55 44 13 44Z" fill="#C41D39"/>
<path d="M8.99999 32C7.91999 32 6.89999 31.57 6.13999 30.8C5.94999 30.6 5.94999 30.29 6.13999 30.09C6.33999 29.9 6.64999 29.9 6.84999 30.09C7.41999 30.67 8.17999 30.99 8.98999 30.99C10.64 30.99 11.99 29.64 11.99 27.99C11.99 26.34 10.64 24.99 8.98999 24.99C7.33999 24.99 5.98999 26.34 5.98999 27.99C5.98999 28.27 5.76999 28.49 5.48999 28.49C5.20999 28.49 4.98999 28.27 4.98999 27.99C4.98999 25.78 6.77999 23.99 8.98999 23.99C11.2 23.99 12.99 25.78 12.99 27.99C12.99 30.2 11.2 31.99 8.98999 31.99L8.99999 32Z" fill="#C41D39"/>
<path d="M9 30C7.9 30 7 29.1 7 28C7 26.9 7.9 26 9 26C9.28 26 9.5 26.22 9.5 26.5C9.5 26.78 9.28 27 9 27C8.45 27 8 27.45 8 28C8 28.55 8.45 29 9 29C9.55 29 10 28.55 10 28C10 27.72 10.22 27.5 10.5 27.5C10.78 27.5 11 27.72 11 28C11 29.1 10.1 30 9 30Z" fill="#C41D39"/>
</g>
<defs>
<clipPath id="clip0_2955_12143">
<rect width="34" height="44" fill="white"/>
</clipPath>
</defs>
</svg>
