<svg width="34" height="44" viewBox="0 0 34 44" fill="none" xmlns="http://www.w3.org/2000/svg">
<g clip-path="url(#clip0_2955_12097)">
<mask id="mask0_2955_12097" style="mask-type:luminance" maskUnits="userSpaceOnUse" x="0" y="0" width="34" height="44">
<path d="M34 0H0V44H34V0Z" fill="white"/>
</mask>
<g mask="url(#mask0_2955_12097)">
<path d="M23.75 33C18.81 33 13.5 31.75 13.5 29C13.5 26.25 18.81 25 23.75 25C28.69 25 34 26.25 34 29C34 31.75 28.69 33 23.75 33ZM23.75 27C18.51 27 15.55 28.42 15.5 29C15.55 29.58 18.51 31 23.75 31C28.99 31 31.94 29.58 32 29C31.94 28.42 28.99 27 23.75 27Z" fill="#C41D39"/>
<path d="M23.75 37C18.81 37 13.5 35.75 13.5 33V29C13.5 28.45 13.95 28 14.5 28C15.05 28 15.5 28.45 15.5 29V33C15.55 33.58 18.51 35 23.75 35C28.99 35 31.95 33.58 32 33V29C32 28.45 32.45 28 33 28C33.55 28 34 28.45 34 29V33C34 35.75 28.69 37 23.75 37Z" fill="#C41D39"/>
<path d="M18.5 35.5C18.22 35.5 18 35.28 18 35V32C18 31.72 18.22 31.5 18.5 31.5C18.78 31.5 19 31.72 19 32V35C19 35.28 18.78 35.5 18.5 35.5Z" fill="#C41D39"/>
<path d="M20.5 35.5C20.22 35.5 20 35.28 20 35V32C20 31.72 20.22 31.5 20.5 31.5C20.78 31.5 21 31.72 21 32V35C21 35.28 20.78 35.5 20.5 35.5Z" fill="#C41D39"/>
<path d="M10.25 36C5.31 36 0 34.75 0 32C0 29.25 5.31 28 10.25 28C11.8 28 13.29 28.12 14.67 28.35C15.21 28.44 15.58 28.96 15.49 29.5C15.4 30.04 14.89 30.41 14.34 30.32C13.09 30.11 11.68 30 10.26 30C5.02 30 2.06 31.42 2.01 32C2.06 32.58 5.02 34 10.26 34C10.67 34 11.07 34 11.46 33.97C12.01 33.93 12.48 34.37 12.5 34.92C12.52 35.47 12.1 35.94 11.55 35.96C11.13 35.98 10.69 35.99 10.25 35.99V36Z" fill="#C41D39"/>
<path d="M10.25 40C5.31 40 0 38.75 0 36V32C0 31.45 0.45 31 1 31C1.55 31 2 31.45 2 32V36C2.05 36.58 5.01 38 10.25 38C10.66 38 11.06 38 11.45 37.97C12 37.93 12.47 38.37 12.49 38.92C12.51 39.47 12.09 39.94 11.54 39.96C11.12 39.98 10.68 39.99 10.24 39.99H10.25V40Z" fill="#C41D39"/>
<path d="M3.5 38.5C3.22 38.5 3 38.28 3 38V35C3 34.72 3.22 34.5 3.5 34.5C3.78 34.5 4 34.72 4 35V38C4 38.28 3.78 38.5 3.5 38.5Z" fill="#C41D39"/>
<path d="M5.5 39C5.22 39 5 38.78 5 38.5V35.5C5 35.22 5.22 35 5.5 35C5.78 35 6 35.22 6 35.5V38.5C6 38.78 5.78 39 5.5 39Z" fill="#C41D39"/>
<path d="M20.75 40.0001C15.81 40.0001 10.5 38.7501 10.5 36.0001C10.5 35.0601 11.14 33.7401 14.21 32.8301C14.74 32.6701 15.3 32.9701 15.45 33.5001C15.61 34.0301 15.31 34.5901 14.78 34.7401C12.95 35.2801 12.51 35.8801 12.49 35.9901C12.54 36.5701 15.5 37.9901 20.74 37.9901C25.98 37.9901 28.94 36.5701 28.99 35.9901C29.04 35.4601 29.47 35.0101 30.03 35.0401C30.56 35.0701 30.99 35.4601 30.99 35.9901C30.99 38.7401 25.68 39.9901 20.74 39.9901H20.75V40.0001Z" fill="#C41D39"/>
<path d="M20.75 44C15.81 44 10.5 42.75 10.5 40V36C10.5 35.45 10.95 35 11.5 35C12.05 35 12.5 35.45 12.5 36V40C12.55 40.58 15.51 42 20.75 42C25.99 42 28.95 40.58 29 40V36C29 35.45 29.45 35 30 35C30.55 35 31 35.45 31 36V40C31 42.75 25.69 44 20.75 44Z" fill="#C41D39"/>
<path d="M15.5 42.5C15.22 42.5 15 42.28 15 42V39C15 38.72 15.22 38.5 15.5 38.5C15.78 38.5 16 38.72 16 39V42C16 42.28 15.78 42.5 15.5 42.5Z" fill="#C41D39"/>
<path d="M17.5 42.5C17.22 42.5 17 42.28 17 42V39C17 38.72 17.22 38.5 17.5 38.5C17.78 38.5 18 38.72 18 39V42C18 42.28 17.78 42.5 17.5 42.5Z" fill="#C41D39"/>
<path d="M27.5 42.5C27.22 42.5 27 42.28 27 42V39C27 38.72 27.22 38.5 27.5 38.5C27.78 38.5 28 38.72 28 39V42C28 42.28 27.78 42.5 27.5 42.5Z" fill="#C41D39"/>
<path d="M4 26C3.45 26 3 25.55 3 25V3C3 1.35 4.35 0 6 0H27C28.65 0 30 1.35 30 3V22C30 22.55 29.55 23 29 23C28.45 23 28 22.55 28 22V3C28 2.45 27.55 2 27 2H6C5.45 2 5 2.45 5 3V25C5 25.55 4.55 26 4 26Z" fill="#C41D39"/>
</g>
<path d="M22 7H11C10.45 7 10 6.55 10 6C10 5.45 10.45 5 11 5H22C22.55 5 23 5.45 23 6C23 6.55 22.55 7 22 7Z" fill="#C41D39"/>
<path d="M24.5 11H8.5C8.22 11 8 10.78 8 10.5C8 10.22 8.22 10 8.5 10H24.5C24.78 10 25 10.22 25 10.5C25 10.78 24.78 11 24.5 11Z" fill="#C41D39"/>
<path d="M24.5 14H8.5C8.22 14 8 13.78 8 13.5C8 13.22 8.22 13 8.5 13H24.5C24.78 13 25 13.22 25 13.5C25 13.78 24.78 14 24.5 14Z" fill="#C41D39"/>
<path d="M24.5 17H8.5C8.22 17 8 16.78 8 16.5C8 16.22 8.22 16 8.5 16H24.5C24.78 16 25 16.22 25 16.5C25 16.78 24.78 17 24.5 17Z" fill="#C41D39"/>
<path d="M24.5 20H8.5C8.22 20 8 19.78 8 19.5C8 19.22 8.22 19 8.5 19H24.5C24.78 19 25 19.22 25 19.5C25 19.78 24.78 20 24.5 20Z" fill="#C41D39"/>
</g>
<defs>
<clipPath id="clip0_2955_12097">
<rect width="34" height="44" fill="white"/>
</clipPath>
</defs>
</svg>
