<svg width="42" height="43" viewBox="0 0 42 43" fill="none" xmlns="http://www.w3.org/2000/svg">
<g clip-path="url(#clip0_2946_12450)">
<path d="M0.0195312 12.0897C0.0195312 12.1397 0.0195312 12.1997 0.0295312 12.2497C0.0295312 12.2797 0.0595312 12.2997 0.0595312 12.3297C0.0795312 12.3797 0.0895312 12.4197 0.119531 12.4597C0.159531 12.5297 0.199531 12.5897 0.249531 12.6497C0.279531 12.6797 0.309531 12.7197 0.339531 12.7497C0.399531 12.7997 0.469531 12.8497 0.539531 12.8797C0.579531 12.8997 0.609531 12.9197 0.639531 12.9397C0.749531 12.9797 0.869531 13.0097 0.999531 13.0097H40.9995C41.1295 13.0097 41.2495 12.9797 41.3595 12.9397C41.3995 12.9297 41.4295 12.8997 41.4595 12.8797C41.5295 12.8397 41.5995 12.7997 41.6595 12.7497C41.6895 12.7197 41.7195 12.6897 41.7495 12.6497C41.7995 12.5897 41.8395 12.5297 41.8795 12.4597C41.8995 12.4197 41.9195 12.3797 41.9395 12.3297C41.9395 12.2997 41.9695 12.2797 41.9695 12.2497C41.9795 12.1997 41.9695 12.1397 41.9795 12.0897C41.9795 12.0597 41.9995 12.0297 41.9995 11.9997C41.9995 11.9897 41.9995 11.9797 41.9995 11.9597C41.9995 11.8497 41.9695 11.7397 41.9395 11.6397C41.9395 11.6297 41.9395 11.6097 41.9395 11.5997C41.8895 11.4897 41.8195 11.3897 41.7395 11.3097C41.7095 11.2797 41.6795 11.2597 41.6495 11.2397C41.5995 11.1997 41.5595 11.1597 41.4995 11.1197L21.4795 0.119687C21.1795 -0.0503125 20.8195 -0.0503125 20.5195 0.119687L0.519531 11.1197C0.459531 11.1497 0.419531 11.1997 0.369531 11.2397C0.339531 11.2697 0.309531 11.2797 0.279531 11.3097C0.199531 11.3997 0.129531 11.4997 0.0795312 11.5997C0.0795312 11.6097 0.0795312 11.6297 0.0795312 11.6397C0.0395312 11.7397 0.0195312 11.8497 0.0195312 11.9597C0.0195312 11.9697 0.0195312 11.9797 0.0195312 11.9997C0.0195312 12.0297 0.0295312 12.0597 0.0395312 12.0897H0.0195312ZM20.9995 2.13969L37.1095 10.9997H4.88953L20.9995 2.13969Z" fill="#C41D39"/>
<path d="M1 38.5C1 38.78 1.22 39 1.5 39H39.5C39.78 39 40 38.78 40 38.5C40 38.22 39.78 38 39.5 38H1.5C1.22 38 1 38.22 1 38.5Z" fill="#C41D39"/>
<path d="M41 41H1C0.45 41 0 41.45 0 42C0 42.55 0.45 43 1 43H41C41.55 43 42 42.55 42 42C42 41.45 41.55 41 41 41Z" fill="#C41D39"/>
<path d="M29.2202 8.54957L21.1702 4.54957C21.0302 4.47957 20.8602 4.47957 20.7202 4.54957L12.7702 8.54957C12.5202 8.66957 12.4202 8.96957 12.5502 9.21957C12.6702 9.46957 12.9702 9.55957 13.2202 9.43957L20.9402 5.54957L28.7702 9.43957C28.8402 9.47957 28.9202 9.48957 28.9902 9.48957C29.1702 9.48957 29.3502 9.38957 29.4402 9.20957C29.5602 8.95957 29.4602 8.65957 29.2102 8.53957L29.2202 8.54957Z" fill="#C41D39"/>
<path d="M3 33V34C2.45 34 2 34.45 2 35C2 35.55 2.45 36 3 36H39C39.55 36 40 35.55 40 35C40 34.45 39.55 34 39 34V33C39 32.45 38.55 32 38 32V18C38.55 18 39 17.55 39 17V16C39.55 16 40 15.55 40 15C40 14.45 39.55 14 39 14H3C2.45 14 2 14.45 2 15C2 15.55 2.45 16 3 16V17C3 17.55 3.45 18 4 18V32C3.45 32 3 32.45 3 33ZM4 33H7V34H4V33ZM7 18C7.55 18 8 17.55 8 17V16H10V17C10 17.55 10.45 18 11 18V32C10.45 32 10 32.45 10 33V34H8V33C8 32.45 7.55 32 7 32V18ZM14 16V17H11V16H14ZM31 16V17H28V16H31ZM35 18V32C34.45 32 34 32.45 34 33V34H32V33C32 32.45 31.55 32 31 32V18C31.55 18 32 17.55 32 17V16H34V17C34 17.55 34.45 18 35 18ZM28 34V33H31V34H28ZM30 18V32H29V18H30ZM28 18V32C27.45 32 27 32.45 27 33V34H25V24H25.5C25.78 24 26 23.78 26 23.5V20.5C26 20.22 25.78 20 25.5 20H16.5C16.22 20 16 20.22 16 20.5V23.5C16 23.78 16.22 24 16.5 24H17V34H15V33C15 32.45 14.55 32 14 32V18C14.55 18 15 17.55 15 17V16H27V17C27 17.55 27.45 18 28 18ZM18 34V24H24V34H18ZM24.5 23H17V21H25V23H24.5ZM11 34V33H14V34H11ZM13 18V32H12V18H13ZM35 34V33H38V34H35ZM37 32H36V18H37V32ZM38 17H35V16H38V17ZM7 16V17H4V16H7ZM5 18H6V32H5V18Z" fill="#C41D39"/>
</g>
<defs>
<clipPath id="clip0_2946_12450">
<rect width="42" height="43" fill="white"/>
</clipPath>
</defs>
</svg>
