<svg width="40" height="32" viewBox="0 0 40 32" fill="none" xmlns="http://www.w3.org/2000/svg">
<rect width="40" height="32" rx="4" fill="#C41D39"/>
<path d="M15.0001 22.0001C14.7401 22.0001 14.4901 21.9001 14.2901 21.7101C13.9001 21.3201 13.9001 20.6901 14.2901 20.3001L24.2901 10.2901C24.6801 9.90006 25.3101 9.90006 25.7001 10.2901C26.0901 10.6801 26.0901 11.3101 25.7001 11.7001L15.7101 21.7101C15.5101 21.9101 15.2601 22.0001 15.0001 22.0001Z" fill="white"/>
<path d="M25.0001 22.0001C24.7401 22.0001 24.4901 21.9001 24.2901 21.7101L14.2901 11.7101C13.9001 11.3201 13.9001 10.6801 14.2901 10.2901C14.6801 9.90006 15.3201 9.90006 15.7101 10.2901L25.7101 20.2901C26.1001 20.6801 26.1001 21.3101 25.7101 21.7001C25.5101 21.9001 25.2601 21.9901 25.0001 21.9901V22.0001Z" fill="white"/>
</svg>
