<svg width="40" height="32" viewBox="0 0 40 32" fill="none" xmlns="http://www.w3.org/2000/svg">
<rect width="40" height="32" rx="4" fill="#FC7F2B"/>
<g clip-path="url(#clip0_2953_13020)">
<path d="M21.5 24.0002C21.37 24.0002 21.24 23.9502 21.15 23.8502C20.95 23.6502 20.95 23.3402 21.15 23.1402L27.15 17.1402C27.35 16.9402 27.66 16.9402 27.86 17.1402C28.06 17.3402 28.06 17.6502 27.86 17.8502L21.86 23.8502C21.76 23.9502 21.63 24.0002 21.51 24.0002H21.5Z" fill="white"/>
<path d="M24.5 24.0002C24.37 24.0002 24.24 23.9502 24.15 23.8502C23.95 23.6502 23.95 23.3402 24.15 23.1402L27.15 20.1402C27.35 19.9402 27.66 19.9402 27.86 20.1402C28.06 20.3402 28.06 20.6502 27.86 20.8502L24.86 23.8502C24.76 23.9502 24.63 24.0002 24.51 24.0002H24.5Z" fill="white"/>
<path d="M17 24H13C12.45 24 12 23.55 12 23V11C12 10.45 12.45 10 13 10H27C27.55 10 28 10.45 28 11V14C28 14.55 27.55 15 27 15C26.45 15 26 14.55 26 14V12H14V22H17C17.55 22 18 22.45 18 23C18 23.55 17.55 24 17 24Z" fill="white"/>
<path d="M14 11.5C13.45 11.5 13 11.05 13 10.5V9C13 8.45 13.45 8 14 8C14.55 8 15 8.45 15 9V10.5C15 11.05 14.55 11.5 14 11.5Z" fill="white"/>
<path d="M18 11.5C17.45 11.5 17 11.05 17 10.5V9C17 8.45 17.45 8 18 8C18.55 8 19 8.45 19 9V10.5C19 11.05 18.55 11.5 18 11.5Z" fill="white"/>
<path d="M22 11.5C21.45 11.5 21 11.05 21 10.5V9C21 8.45 21.45 8 22 8C22.55 8 23 8.45 23 9V10.5C23 11.05 22.55 11.5 22 11.5Z" fill="white"/>
<path d="M26 11.5C25.45 11.5 25 11.05 25 10.5V9C25 8.45 25.45 8 26 8C26.55 8 27 8.45 27 9V10.5C27 11.05 26.55 11.5 26 11.5Z" fill="white"/>
<path d="M17.0001 19.9998C16.7401 19.9998 16.4901 19.8998 16.2901 19.7098C15.9001 19.3198 15.9001 18.6898 16.2901 18.2998L20.2901 14.2998C20.6801 13.9098 21.3101 13.9098 21.7001 14.2998C22.0901 14.6898 22.0901 15.3198 21.7001 15.7098L17.7001 19.7098C17.5001 19.9098 17.2501 19.9998 16.9901 19.9998H17.0001Z" fill="white"/>
<path d="M21.0001 19.9998C20.7401 19.9998 20.4901 19.8998 20.2901 19.7098L16.2901 15.7098C15.9001 15.3198 15.9001 14.6898 16.2901 14.2998C16.6801 13.9098 17.3101 13.9098 17.7001 14.2998L21.7001 18.2998C22.0901 18.6898 22.0901 19.3198 21.7001 19.7098C21.5001 19.9098 21.2501 19.9998 20.9901 19.9998H21.0001Z" fill="white"/>
</g>
<defs>
<clipPath id="clip0_2953_13020">
<rect width="16" height="16" fill="white" transform="translate(12 8)"/>
</clipPath>
</defs>
</svg>
