<svg width="40" height="32" viewBox="0 0 40 32" fill="none" xmlns="http://www.w3.org/2000/svg">
<rect width="40" height="32" rx="4" fill="#F1C332"/>
<g clip-path="url(#clip0_2953_13017)">
<path d="M23.0001 23.9998C22.7401 23.9998 22.4901 23.8998 22.2901 23.7098L20.2901 21.7098C19.9001 21.3198 19.9001 20.6898 20.2901 20.2998C20.6801 19.9098 21.3101 19.9098 21.7001 20.2998L22.9901 21.5898L26.2801 18.2998C26.6701 17.9098 27.3001 17.9098 27.6901 18.2998C28.0801 18.6898 28.0801 19.3198 27.6901 19.7098L23.6901 23.7098C23.4901 23.9098 23.2401 23.9998 22.9801 23.9998H23.0001Z" fill="white"/>
<path d="M17 24H13C12.45 24 12 23.55 12 23V11C12 10.45 12.45 10 13 10H27C27.55 10 28 10.45 28 11V15C28 15.55 27.55 16 27 16C26.45 16 26 15.55 26 15V12H14V22H17C17.55 22 18 22.45 18 23C18 23.55 17.55 24 17 24Z" fill="white"/>
<path d="M14 11.5C13.45 11.5 13 11.05 13 10.5V9C13 8.45 13.45 8 14 8C14.55 8 15 8.45 15 9V10.5C15 11.05 14.55 11.5 14 11.5Z" fill="white"/>
<path d="M18 11.5C17.45 11.5 17 11.05 17 10.5V9C17 8.45 17.45 8 18 8C18.55 8 19 8.45 19 9V10.5C19 11.05 18.55 11.5 18 11.5Z" fill="white"/>
<path d="M22 11.5C21.45 11.5 21 11.05 21 10.5V9C21 8.45 21.45 8 22 8C22.55 8 23 8.45 23 9V10.5C23 11.05 22.55 11.5 22 11.5Z" fill="white"/>
<path d="M26 11.5C25.45 11.5 25 11.05 25 10.5V9C25 8.45 25.45 8 26 8C26.55 8 27 8.45 27 9V10.5C27 11.05 26.55 11.5 26 11.5Z" fill="white"/>
<path d="M16.5 21.0002C16.37 21.0002 16.24 20.9502 16.15 20.8502C15.95 20.6502 15.95 20.3402 16.15 20.1402L23.15 13.1402C23.35 12.9402 23.66 12.9402 23.86 13.1402C24.06 13.3402 24.06 13.6502 23.86 13.8502L16.86 20.8502C16.76 20.9502 16.63 21.0002 16.51 21.0002H16.5Z" fill="white"/>
<path d="M15.5 18C15.37 18 15.24 17.95 15.15 17.85C14.95 17.65 14.95 17.34 15.15 17.14L19.15 13.15C19.35 12.95 19.66 12.95 19.86 13.15C20.06 13.35 20.06 13.66 19.86 13.86L15.85 17.85C15.75 17.95 15.62 18 15.5 18Z" fill="white"/>
</g>
<defs>
<clipPath id="clip0_2953_13017">
<rect width="16" height="16" fill="white" transform="translate(12 8)"/>
</clipPath>
</defs>
</svg>
